<?xml version="1.0" standalone="no"?>
<!DOCTYPE svg PUBLIC "-//W3C//DTD SVG 20010904//EN"
        "http://www.w3.org/TR/2001/REC-SVG-20010904/DTD/svg10.dtd">
<svg version="1.0" xmlns="http://www.w3.org/2000/svg"
     width="20px" height="20px" viewBox="0 0 256 256"
     preserveAspectRatio="xMidYMid meet">
    <g transform="translate(0.000000,256.000000) scale(0.100000,-0.100000)" stroke="none">
        <path d="M1048 2544 c-261 -47 -496 -173 -685 -367 -106 -109 -167 -193 -228
-313 -93 -181 -135 -365 -135 -584 0 -364 127 -668 383 -917 109 -106 193
-167 313 -228 181 -93 365 -135 584 -135 219 0 403 42 584 135 120 61 204 122
313 228 197 192 321 426 368 693 20 113 19 336 0 450 -30 168 -102 345 -202
498 -60 91 -248 279 -338 338 -154 101 -332 173 -499 203 -110 19 -351 19
-458 -1z m247 -229 c33 -9 98 -36 145 -61 88 -46 255 -166 273 -195 8 -13 -2
-30 -50 -85 -33 -38 -79 -98 -103 -133 -50 -74 -130 -228 -130 -249 0 -10 -5
-12 -17 -6 -38 16 -171 16 -220 0 l-47 -16 -23 27 c-37 44 -91 162 -109 238
-20 86 -23 220 -6 297 18 78 66 147 122 176 52 26 85 27 165 7z m75 -907 c54
-37 75 -73 75 -128 0 -55 -21 -91 -75 -127 -91 -62 -220 13 -220 128 0 114
129 188 220 127z m506 -148 c168 -42 339 -157 380 -256 21 -51 20 -114 -5
-161 -24 -48 -118 -136 -193 -181 -79 -47 -251 -123 -284 -125 -27 -2 -30 2
-56 78 -41 116 -100 235 -163 327 l-55 80 34 40 c41 47 70 107 81 163 4 22 12
43 18 47 23 15 165 8 243 -12z m-1353 -11 c77 -16 139 -22 252 -22 83 -1 162
2 178 6 24 7 27 5 27 -16 0 -41 59 -145 101 -179 45 -36 46 -52 4 -124 -64
-110 -191 -224 -315 -283 -68 -32 -83 -36 -161 -36 -78 0 -89 2 -121 27 -77
59 -114 195 -105 382 5 111 25 266 34 266 3 0 51 -10 106 -21z"/>
    </g>
</svg>
