<?xml version="1.0" standalone="no"?>
<!DOCTYPE svg PUBLIC "-//W3C//DTD SVG 20010904//EN"
        "http://www.w3.org/TR/2001/REC-SVG-20010904/DTD/svg10.dtd">
<svg version="1.0" xmlns="http://www.w3.org/2000/svg"
     width="20px" height="20px" viewBox="0 0 256 256"
     preserveAspectRatio="xMidYMid meet">
    <g transform="translate(0.000000,256.000000) scale(0.100000,-0.100000)" stroke="none">
        <path d="M1310 2541 c-212 -45 -383 -136 -531 -281 -162 -159 -223 -290 -261
-560 -17 -118 -25 -152 -46 -183 -16 -24 -31 -37 -41 -34 -108 32 -106 31
-139 7 -71 -53 -187 -221 -235 -341 -43 -106 -57 -184 -57 -311 0 -277 98
-493 293 -641 124 -96 329 -176 482 -189 l50 -4 100 107 100 108 3 -110 3
-109 549 0 550 0 0 300 0 300 -468 0 -469 0 -214 -230 -214 -231 -40 7 c-21 4
-66 15 -100 26 -265 86 -423 258 -477 516 -34 162 -13 313 62 467 40 81 120
192 145 201 7 3 145 -37 306 -89 l292 -95 756 385 c416 212 757 387 759 389 2
1 -9 26 -24 56 -77 154 -234 324 -383 416 -94 58 -221 107 -329 128 -104 20
-316 17 -422 -5z"/>
        <path d="M1791 1490 c-387 -197 -708 -363 -712 -367 -4 -4 14 -101 39 -215
l46 -208 507 0 506 0 55 58 c151 158 270 382 312 584 18 87 21 268 6 349 -14
76 -39 159 -48 159 -4 0 -324 -162 -711 -360z"/>
    </g>
</svg>
